<?xml version="1.0" encoding="UTF-8" standalone="no"?><!DOCTYPE svg PUBLIC "-//W3C//DTD SVG 1.1//EN" "http://www.w3.org/Graphics/SVG/1.1/DTD/svg11.dtd"><svg width="100%" height="100%" viewBox="0 0 299 83" version="1.1" xmlns="http://www.w3.org/2000/svg" xmlns:xlink="http://www.w3.org/1999/xlink" xml:space="preserve" xmlns:serif="http://www.serif.com/" style="fill-rule:evenodd;clip-rule:evenodd;stroke-linejoin:round;stroke-miterlimit:1.41421;"><rect x="0" y="0" width="298.524" height="82.382" style="fill:#2e3746;"/><g><path d="M29.974,37.347c0.05,0.45 0.088,0.956 0.113,1.519c0.025,0.562 0.037,1.031 0.037,1.406l0.113,0c0.225,-0.475 0.531,-0.919 0.919,-1.331c0.387,-0.413 0.831,-0.775 1.331,-1.088c0.5,-0.312 1.05,-0.556 1.65,-0.731c0.6,-0.175 1.225,-0.262 1.875,-0.262c1.15,0 2.137,0.193 2.962,0.581c0.825,0.387 1.513,0.906 2.063,1.556c0.55,0.65 0.956,1.413 1.219,2.288c0.262,0.875 0.393,1.812 0.393,2.812l0,11.025l-3.525,0l0,-9.862c0,-0.725 -0.056,-1.413 -0.168,-2.063c-0.113,-0.65 -0.319,-1.225 -0.619,-1.725c-0.3,-0.5 -0.713,-0.9 -1.238,-1.2c-0.525,-0.3 -1.2,-0.45 -2.025,-0.45c-1.4,0 -2.543,0.531 -3.431,1.594c-0.887,1.062 -1.331,2.481 -1.331,4.256l0,9.45l-3.525,0l0,-13.95c0,-0.475 -0.013,-1.087 -0.038,-1.837c-0.025,-0.75 -0.062,-1.413 -0.112,-1.988l3.337,0Z" style="fill:#a7c965;fill-rule:nonzero;"/><path d="M63.499,44.66c-0.025,-0.7 -0.143,-1.357 -0.356,-1.969c-0.212,-0.613 -0.525,-1.144 -0.937,-1.594c-0.413,-0.45 -0.925,-0.806 -1.538,-1.069c-0.612,-0.262 -1.331,-0.393 -2.156,-0.393c-0.75,0 -1.456,0.131 -2.119,0.393c-0.662,0.263 -1.237,0.619 -1.725,1.069c-0.487,0.45 -0.887,0.981 -1.2,1.594c-0.312,0.612 -0.494,1.269 -0.544,1.969l10.575,0Zm3.563,1.425c0,0.2 0,0.4 0,0.6c0,0.2 -0.013,0.4 -0.038,0.6l-14.1,0c0.025,0.75 0.194,1.456 0.507,2.118c0.312,0.663 0.731,1.238 1.256,1.725c0.525,0.488 1.131,0.869 1.819,1.144c0.687,0.275 1.418,0.413 2.193,0.413c1.2,0 2.238,-0.263 3.113,-0.788c0.875,-0.525 1.562,-1.162 2.062,-1.912l2.475,1.987c-0.95,1.25 -2.068,2.169 -3.356,2.756c-1.287,0.588 -2.719,0.882 -4.294,0.882c-1.35,0 -2.6,-0.225 -3.75,-0.675c-1.15,-0.45 -2.137,-1.082 -2.962,-1.894c-0.825,-0.813 -1.475,-1.794 -1.95,-2.944c-0.475,-1.15 -0.713,-2.425 -0.713,-3.825c0,-1.375 0.232,-2.644 0.694,-3.806c0.463,-1.163 1.106,-2.156 1.931,-2.981c0.825,-0.825 1.8,-1.469 2.925,-1.932c1.125,-0.462 2.338,-0.693 3.638,-0.693c1.3,0 2.481,0.212 3.544,0.637c1.062,0.425 1.962,1.038 2.7,1.838c0.737,0.8 1.306,1.768 1.706,2.906c0.4,1.137 0.6,2.419 0.6,3.844Z" style="fill:#a7c965;fill-rule:nonzero;"/><path d="M88.024,52.31c-0.675,1.075 -1.593,1.893 -2.756,2.456c-1.162,0.562 -2.381,0.844 -3.656,0.844c-1.375,0 -2.613,-0.244 -3.713,-0.732c-1.1,-0.487 -2.037,-1.156 -2.812,-2.006c-0.775,-0.85 -1.375,-1.85 -1.8,-3c-0.425,-1.15 -0.638,-2.375 -0.638,-3.675c0,-1.3 0.213,-2.519 0.638,-3.656c0.425,-1.138 1.031,-2.131 1.819,-2.981c0.787,-0.85 1.731,-1.513 2.831,-1.988c1.1,-0.475 2.312,-0.712 3.637,-0.712c1.45,0 2.713,0.306 3.788,0.918c1.075,0.613 1.925,1.357 2.55,2.232l0.075,0l0,-13.238l3.525,0l0,28.35l-3.413,0l0,-2.812l-0.075,0Zm-11.7,-6.113c0,0.825 0.125,1.625 0.375,2.4c0.25,0.775 0.625,1.463 1.125,2.063c0.5,0.6 1.113,1.081 1.838,1.443c0.725,0.363 1.575,0.544 2.55,0.544c0.9,0 1.719,-0.175 2.456,-0.525c0.738,-0.35 1.369,-0.819 1.894,-1.406c0.525,-0.588 0.931,-1.269 1.219,-2.044c0.287,-0.775 0.431,-1.587 0.431,-2.437c0,-0.85 -0.144,-1.663 -0.431,-2.438c-0.288,-0.775 -0.694,-1.462 -1.219,-2.062c-0.525,-0.6 -1.156,-1.075 -1.894,-1.425c-0.737,-0.35 -1.556,-0.525 -2.456,-0.525c-0.975,0 -1.825,0.175 -2.55,0.525c-0.725,0.35 -1.338,0.825 -1.838,1.425c-0.5,0.6 -0.875,1.287 -1.125,2.062c-0.25,0.775 -0.375,1.575 -0.375,2.4Z" style="fill:#a7c965;fill-rule:nonzero;"/><path d="M103.024,52.31l0,2.812l-3.412,0l0,-28.35l3.525,0l0,13.238l0.112,0c0.6,-0.875 1.438,-1.619 2.513,-2.232c1.075,-0.612 2.35,-0.918 3.825,-0.918c1.325,0 2.531,0.237 3.619,0.712c1.087,0.475 2.025,1.138 2.812,1.988c0.788,0.85 1.394,1.843 1.819,2.981c0.425,1.137 0.637,2.356 0.637,3.656c0,1.3 -0.212,2.525 -0.637,3.675c-0.425,1.15 -1.025,2.15 -1.8,3c-0.775,0.85 -1.713,1.519 -2.813,2.006c-1.1,0.488 -2.337,0.732 -3.712,0.732c-1.275,0 -2.488,-0.282 -3.638,-0.844c-1.15,-0.563 -2.075,-1.381 -2.775,-2.456l-0.075,0Zm11.813,-6.113c0,-0.825 -0.125,-1.625 -0.375,-2.4c-0.25,-0.775 -0.625,-1.462 -1.125,-2.062c-0.5,-0.6 -1.119,-1.075 -1.856,-1.425c-0.738,-0.35 -1.594,-0.525 -2.569,-0.525c-0.9,0 -1.719,0.175 -2.456,0.525c-0.738,0.35 -1.369,0.825 -1.894,1.425c-0.525,0.6 -0.931,1.287 -1.219,2.062c-0.287,0.775 -0.431,1.588 -0.431,2.438c0,0.85 0.144,1.662 0.431,2.437c0.288,0.775 0.694,1.456 1.219,2.044c0.525,0.587 1.156,1.056 1.894,1.406c0.737,0.35 1.556,0.525 2.456,0.525c0.975,0 1.831,-0.181 2.569,-0.544c0.737,-0.362 1.356,-0.843 1.856,-1.443c0.5,-0.6 0.875,-1.288 1.125,-2.063c0.25,-0.775 0.375,-1.575 0.375,-2.4Z" style="fill:#a7c965;fill-rule:nonzero;"/><rect x="123.874" y="44.472" width="8.7" height="3" style="fill:#7b7f8e;fill-rule:nonzero;"/><path d="M142.587,40.272c0.45,-0.95 1.169,-1.756 2.156,-2.419c0.988,-0.662 2.156,-0.993 3.506,-0.993c1.2,0 2.282,0.275 3.244,0.825c0.963,0.55 1.719,1.462 2.269,2.737c0.6,-1.15 1.437,-2.031 2.512,-2.644c1.075,-0.612 2.25,-0.918 3.525,-0.918c1.15,0 2.138,0.193 2.963,0.581c0.825,0.387 1.512,0.906 2.062,1.556c0.55,0.65 0.957,1.413 1.219,2.288c0.263,0.875 0.394,1.812 0.394,2.812l0,11.025l-3.525,0l0,-9.862c0,-0.725 -0.063,-1.413 -0.188,-2.063c-0.125,-0.65 -0.337,-1.225 -0.637,-1.725c-0.3,-0.5 -0.7,-0.9 -1.2,-1.2c-0.5,-0.3 -1.138,-0.45 -1.913,-0.45c-0.8,0 -1.487,0.169 -2.062,0.506c-0.575,0.338 -1.044,0.775 -1.406,1.313c-0.363,0.537 -0.625,1.144 -0.788,1.819c-0.162,0.675 -0.244,1.362 -0.244,2.062l0,9.6l-3.525,0l0,-10.575c0,-0.7 -0.062,-1.337 -0.187,-1.912c-0.125,-0.575 -0.338,-1.069 -0.638,-1.482c-0.3,-0.412 -0.687,-0.737 -1.162,-0.975c-0.475,-0.237 -1.063,-0.356 -1.763,-0.356c-1.3,0 -2.381,0.531 -3.243,1.594c-0.863,1.062 -1.294,2.481 -1.294,4.256l0,9.45l-3.525,0l0,-13.95c0,-0.475 -0.013,-1.087 -0.038,-1.837c-0.025,-0.75 -0.062,-1.413 -0.112,-1.988l3.337,0c0.05,0.45 0.088,0.956 0.113,1.519c0.025,0.562 0.037,1.031 0.037,1.406l0.113,0Z" style="fill:#fff;fill-rule:nonzero;"/><path d="M192.274,46.197c0,1.375 -0.243,2.638 -0.731,3.788c-0.487,1.15 -1.162,2.143 -2.025,2.981c-0.862,0.837 -1.881,1.487 -3.056,1.95c-1.175,0.462 -2.438,0.694 -3.788,0.694c-1.35,0 -2.612,-0.232 -3.787,-0.694c-1.175,-0.463 -2.188,-1.113 -3.038,-1.95c-0.85,-0.838 -1.518,-1.831 -2.006,-2.981c-0.487,-1.15 -0.731,-2.413 -0.731,-3.788c0,-1.375 0.244,-2.631 0.731,-3.769c0.488,-1.137 1.156,-2.118 2.006,-2.943c0.85,-0.825 1.863,-1.469 3.038,-1.932c1.175,-0.462 2.437,-0.693 3.787,-0.693c1.35,0 2.613,0.231 3.788,0.693c1.175,0.463 2.194,1.107 3.056,1.932c0.863,0.825 1.538,1.806 2.025,2.943c0.488,1.138 0.731,2.394 0.731,3.769Zm-3.675,0c0,-0.85 -0.131,-1.662 -0.393,-2.437c-0.263,-0.775 -0.644,-1.457 -1.144,-2.044c-0.5,-0.588 -1.119,-1.056 -1.856,-1.406c-0.738,-0.35 -1.582,-0.525 -2.532,-0.525c-0.95,0 -1.793,0.175 -2.531,0.525c-0.737,0.35 -1.356,0.818 -1.856,1.406c-0.5,0.587 -0.881,1.269 -1.144,2.044c-0.262,0.775 -0.394,1.587 -0.394,2.437c0,0.85 0.132,1.663 0.394,2.438c0.263,0.775 0.644,1.462 1.144,2.062c0.5,0.6 1.119,1.075 1.856,1.425c0.738,0.35 1.581,0.525 2.531,0.525c0.95,0 1.794,-0.175 2.532,-0.525c0.737,-0.35 1.356,-0.825 1.856,-1.425c0.5,-0.6 0.881,-1.287 1.144,-2.062c0.262,-0.775 0.393,-1.588 0.393,-2.438Z" style="fill:#fff;fill-rule:nonzero;"/><path d="M213.199,52.31c-0.675,1.075 -1.593,1.893 -2.756,2.456c-1.162,0.562 -2.381,0.844 -3.656,0.844c-1.375,0 -2.613,-0.244 -3.713,-0.732c-1.1,-0.487 -2.037,-1.156 -2.812,-2.006c-0.775,-0.85 -1.375,-1.85 -1.8,-3c-0.425,-1.15 -0.638,-2.375 -0.638,-3.675c0,-1.3 0.213,-2.519 0.638,-3.656c0.425,-1.138 1.031,-2.131 1.819,-2.981c0.787,-0.85 1.731,-1.513 2.831,-1.988c1.1,-0.475 2.312,-0.712 3.637,-0.712c1.45,0 2.713,0.306 3.788,0.918c1.075,0.613 1.925,1.357 2.55,2.232l0.075,0l0,-13.238l3.525,0l0,28.35l-3.413,0l0,-2.812l-0.075,0Zm-11.7,-6.113c0,0.825 0.125,1.625 0.375,2.4c0.25,0.775 0.625,1.463 1.125,2.063c0.5,0.6 1.113,1.081 1.838,1.443c0.725,0.363 1.575,0.544 2.55,0.544c0.9,0 1.719,-0.175 2.456,-0.525c0.738,-0.35 1.369,-0.819 1.894,-1.406c0.525,-0.588 0.931,-1.269 1.219,-2.044c0.287,-0.775 0.431,-1.587 0.431,-2.437c0,-0.85 -0.144,-1.663 -0.431,-2.438c-0.288,-0.775 -0.694,-1.462 -1.219,-2.062c-0.525,-0.6 -1.156,-1.075 -1.894,-1.425c-0.737,-0.35 -1.556,-0.525 -2.456,-0.525c-0.975,0 -1.825,0.175 -2.55,0.525c-0.725,0.35 -1.338,0.825 -1.838,1.425c-0.5,0.6 -0.875,1.287 -1.125,2.062c-0.25,0.775 -0.375,1.575 -0.375,2.4Z" style="fill:#fff;fill-rule:nonzero;"/><path d="M237.724,44.66c-0.025,-0.7 -0.143,-1.357 -0.356,-1.969c-0.212,-0.613 -0.525,-1.144 -0.937,-1.594c-0.413,-0.45 -0.925,-0.806 -1.538,-1.069c-0.612,-0.262 -1.331,-0.393 -2.156,-0.393c-0.75,0 -1.456,0.131 -2.119,0.393c-0.662,0.263 -1.237,0.619 -1.725,1.069c-0.487,0.45 -0.887,0.981 -1.2,1.594c-0.312,0.612 -0.494,1.269 -0.544,1.969l10.575,0Zm3.563,1.425c0,0.2 0,0.4 0,0.6c0,0.2 -0.013,0.4 -0.038,0.6l-14.1,0c0.025,0.75 0.194,1.456 0.507,2.118c0.312,0.663 0.731,1.238 1.256,1.725c0.525,0.488 1.131,0.869 1.819,1.144c0.687,0.275 1.418,0.413 2.193,0.413c1.2,0 2.238,-0.263 3.113,-0.788c0.875,-0.525 1.562,-1.162 2.062,-1.912l2.475,1.987c-0.95,1.25 -2.068,2.169 -3.356,2.756c-1.287,0.588 -2.719,0.882 -4.294,0.882c-1.35,0 -2.6,-0.225 -3.75,-0.675c-1.15,-0.45 -2.137,-1.082 -2.962,-1.894c-0.825,-0.813 -1.475,-1.794 -1.95,-2.944c-0.475,-1.15 -0.713,-2.425 -0.713,-3.825c0,-1.375 0.232,-2.644 0.694,-3.806c0.463,-1.163 1.106,-2.156 1.931,-2.981c0.825,-0.825 1.8,-1.469 2.925,-1.932c1.125,-0.462 2.338,-0.693 3.638,-0.693c1.3,0 2.481,0.212 3.544,0.637c1.062,0.425 1.962,1.038 2.7,1.838c0.737,0.8 1.306,1.768 1.706,2.906c0.4,1.137 0.6,2.419 0.6,3.844Z" style="fill:#fff;fill-rule:nonzero;"/><rect x="248.149" y="26.772" width="3.525" height="28.35" style="fill:#fff;fill-rule:nonzero;"/><path d="M269.299,41.847c-0.4,-0.65 -0.962,-1.181 -1.687,-1.594c-0.725,-0.412 -1.538,-0.618 -2.438,-0.618c-0.4,0 -0.8,0.043 -1.2,0.131c-0.4,0.087 -0.756,0.225 -1.068,0.412c-0.313,0.188 -0.563,0.425 -0.75,0.713c-0.188,0.287 -0.282,0.644 -0.282,1.069c0,0.75 0.338,1.306 1.013,1.668c0.675,0.363 1.687,0.694 3.037,0.994c0.85,0.2 1.638,0.438 2.363,0.713c0.725,0.275 1.356,0.618 1.894,1.031c0.537,0.412 0.956,0.906 1.256,1.481c0.3,0.575 0.45,1.25 0.45,2.025c0,1.05 -0.2,1.938 -0.6,2.663c-0.4,0.725 -0.931,1.318 -1.594,1.781c-0.662,0.462 -1.419,0.794 -2.269,0.994c-0.85,0.2 -1.725,0.3 -2.625,0.3c-1.35,0 -2.668,-0.263 -3.956,-0.788c-1.287,-0.525 -2.356,-1.325 -3.206,-2.4l2.512,-2.137c0.475,0.7 1.132,1.287 1.969,1.762c0.838,0.475 1.756,0.713 2.756,0.713c0.45,0 0.882,-0.044 1.294,-0.132c0.413,-0.087 0.788,-0.231 1.125,-0.431c0.338,-0.2 0.606,-0.462 0.806,-0.787c0.2,-0.325 0.3,-0.738 0.3,-1.238c0,-0.825 -0.393,-1.437 -1.181,-1.837c-0.787,-0.4 -1.944,-0.775 -3.469,-1.125c-0.6,-0.15 -1.206,-0.332 -1.818,-0.544c-0.613,-0.213 -1.169,-0.506 -1.669,-0.881c-0.5,-0.375 -0.906,-0.844 -1.219,-1.407c-0.312,-0.562 -0.469,-1.256 -0.469,-2.081c0,-0.95 0.194,-1.769 0.582,-2.456c0.387,-0.688 0.893,-1.25 1.518,-1.688c0.625,-0.437 1.338,-0.762 2.138,-0.975c0.8,-0.212 1.625,-0.318 2.475,-0.318c1.275,0 2.506,0.25 3.694,0.75c1.187,0.5 2.106,1.225 2.756,2.175l-2.438,2.062Z" style="fill:#fff;fill-rule:nonzero;"/></g></svg>